PathFileType	4	(X/Y/Z)	/home/abdul/Desktop/myosuite/custom_workspace/IK/output/S16_12_1.trc
DataRate	CameraRate	NumFrames	NumMarkers	Units	OrigDataRate	OrigDataStartFrame	OrigNumFrames
200.0	200.0	33	3	mm	200.0	609	1216
Frame#	Time	V_Shoulder			V_Elbow			V_Wrist		
		X1	Y1	Z1	X2	Y2	Z2	X3	Y3	Z3

609	3.04	-117.34892510621285	620.7328193124085	300.681161368187	-252.16178730864573	467.6819038309093	47.68148566357384	-98.09470625017354	282.7774680927298	139.54090175172558
610	3.045	-117.31768119011171	620.5169571124567	300.64543600900055	-252.13166299104319	467.5874117059086	47.514535858748935	-98.35018797874118	281.49280000865804	137.60947493579388
611	3.05	-117.2862816436919	620.2996563834444	300.6101597162115	-252.0907303883332	467.4859335956835	47.346898101667456	-98.60300939723248	280.23718710623825	135.70075164825923
612	3.055	-117.25473722863315	620.0809623235994	300.57533347359777	-252.0390981177444	467.37746472184165	47.178641142158696	-98.85289388988434	279.0104112027569	133.8155248058994
613	3.06	-117.22305822151657	619.8609205143356	300.54095819896946	-251.97688741716735	467.26200182074984	47.00984391809813	-99.09956726193093	277.8122031283872	131.9545434627916
614	3.065	-117.19125438047787	619.6395768965607	300.5070347564645	-251.90423172011867	467.1395431608769	46.84059533797497	-99.34275825123908	276.64224500544566	130.11851227508154
615	3.07	-117.15933491361598	619.4169777460638	300.47356396772085	-251.82127621207684	467.01008857774036	46.670994013911084	-99.58219903245022	275.500172627947	128.30809107486994
616	3.075	-117.12730844926246	619.1931696480743	300.44054662187267	-251.7281773699449	466.8736395265464	46.501147946403265	-99.8176257125886	274.38557793102484	126.5238945524342
617	3.08	-117.09518300821073	618.9681994710817	300.4079834843291	-251.62510248640552	466.7301991524808	46.33117416229587	-100.04877881713011	273.29801153967054	124.76649204570495
618	3.085	-117.06296597799519	618.7421143400047	300.3758753042985	-251.51222918093822	466.57977237847956	46.16119830771779	-100.27540376556334	272.236985386167	123.03640743562644
619	3.09	-117.03066408930276	618.5149616088077	300.34422282102895	-251.38974489926204	466.4223660101794	45.99135419793416	-100.49725133551082	271.20197538557	121.33411914574943
620	3.095	-116.99828339459073	618.2867888326473	300.3130267687448	-251.257846402958	466.25798885761776	45.82178332626941	-100.71407811451715	270.1924241586062	119.66006024413576
621	3.1	-116.96582924897693	618.0576437396468	300.2822878802663	-251.11673925100496	466.08665187312886	45.65263433445213	-100.92564693864901	269.2077437914186	118.01461864539385
622	3.105	-116.9333062934587	617.8275742023818	300.25200688930573	-250.96663727494	465.9083683047573	45.48406244691294	-101.13172731709216	268.24731862169097	116.39813741041684
623	3.11	-116.90071844050908	617.5966282091696	300.2221845314428	-250.80776204932155	465.7231538643938	45.31622887173382	-101.33209584197061	267.3105080408261	114.8109151411594
624	3.115	-116.86806886208971	617.3648538352448	300.19282154378885	-250.64034235913675	465.531026909721	45.149300171099725	-101.52653658265402	266.39664930203224	113.25320646756444
625	3.12	-116.83535998011064	617.1322992139063	300.1639186633566	-250.4646136657522	465.332008638949	44.98344760423988	-101.71484146386041	265.5050603243858	111.7252226235405
626	3.125	-116.80259345935872	616.8990125077171	300.13547662415976	-250.28081757295837	465.12612329721657	44.818846445967324	-101.89681062690426	264.6350424831912	110.22713210869142
627	3.13	-116.76977020290774	616.6650418798332	300.10749615307367	-250.08920129460384	464.9133983934362	44.6556752840296	-102.0722527734813	263.78588337723636	108.7590614323147
628	3.135	-116.73689035001416	616.4304354655377	300.07997796449513	-249.8900171252599	464.69386492627086	44.494115298570364	-102.24098549142539	262.956859563855	107.3210959360128
629	3.14	-116.70395327649403	616.1952413440487	300.05292275384704	-249.6835219152918	464.4675576178494	44.334349527071964	-102.40283556191547	262.14723925304526	105.91328069110301
630	3.145	-116.67095759756774	615.9595075106726	300.0263311899782	-249.46997655164876	464.2345151537494	44.17656211820101	-102.55763924765529	261.3562849522551	104.53562146686671
631	3.15	-116.63790117315129	615.7232818493587	300.00020390651486	-249.24964544561493	463.994780427715	44.02093757801386	-102.70524256159247	260.5832560538331	103.18808576554747
632	3.155	-116.60478111556482	615.4866121057213	299.9745414922284	-249.02279602869214	463.74840078951644	43.86766001199543	-102.8455015157885	259.82741135754634	101.87060391989127
633	3.16	-116.57159379961983	615.2495458605766	299.94934448048474	-248.7896982577106	463.4954282943105	43.71691236640458	-102.97828235009615	259.08801152099477	100.58307024891836
634	3.165	-116.53833487504107	615.0121305040467	299.92461333785104	-248.55062413018757	463.2359199518254	43.56887567238027	-103.10346174034686	258.3643214311888	99.32534426752761
635	3.17	-116.5049992811693	614.7744132102752	299.90034845193503	-248.30584721087564	462.9699379736609	43.42372829622796	-103.22092698579583	257.65561249101046	98.0972519454601
636	3.175	-116.47158126388602	614.5364409127906	299.87655011853843	-248.05564217036482	462.6975500169795	43.281645199252985	-103.33057617561872	256.96116481474564	96.89858701108764
637	3.18	-116.43807439469263	614.2982602805549	299.853218528211	-247.80028433652078	462.41882942285434	43.142797210439355	-103.43231833430053	256.2802693273461	95.7291122954457
638	3.185	-116.40447159187183	614.0599176947243	299.8303537522907	-247.54004925946464	462.13385544753913	43.007350315187665	-103.52607354580286	255.61222976256283	94.5885611118989
639	3.19	-116.37076514365138	613.8214592261464	299.807955728523	-247.27521229071704	461.8427134849396	42.87546496322665	-103.61177305644244	254.95636455557877	93.47663866680813
640	3.195	-116.33694673328579	613.5829306136131	299.786024246351	-247.00604817705255	461.54549527858626	42.74729539869852	-103.68935935646036	254.31200862625707	92.39302349656542
641	3.2	-116.30300746596534	613.3443772428822	299.7645589319717	-246.7328306695318	461.24229912143835	42.622989015290685	-103.75878624030682	253.67851504961254	91.33736892637197
